HIERARCHY
ROOT Hips
{
  OFFSET 263.056 91.6644 -274.608
  CHANNELS 6 Xposition Yposition Zposition Zrotation Xrotation Yrotation
  JOINT LeftUpLeg
  {
    OFFSET 8.64259 1.95398 -2.38835
    CHANNELS 3 Zrotation Xrotation Yrotation
    JOINT LeftLeg
    {
      OFFSET 43.7702 0 0
      CHANNELS 3 Zrotation Xrotation Yrotation
      JOINT LeftFoot
      {
        OFFSET 40.6238 0 0
        CHANNELS 3 Zrotation Xrotation Yrotation
        JOINT LeftToeBase
        {
          OFFSET 12.7242 0 0
          CHANNELS 3 Zrotation Xrotation Yrotation
          End Site
          {
            OFFSET 0 0 0
          }
        }
      }
    }
  }
  JOINT RightUpLeg
  {
    OFFSET -8.2249 1.95398 -2.59336
    CHANNELS 3 Zrotation Xrotation Yrotation
    JOINT RightLeg
    {
      OFFSET 43.5653 0 0
      CHANNELS 3 Zrotation Xrotation Yrotation
      JOINT RightFoot
      {
        OFFSET 40.6238 0 0
        CHANNELS 3 Zrotation Xrotation Yrotation
        JOINT RightToeBase
        {
          OFFSET 12.7242 0 0
          CHANNELS 3 Zrotation Xrotation Yrotation
          End Site
          {
            OFFSET 0 0 0
          }
        }
      }
    }
  }
  JOINT Spine
  {
    OFFSET 0.165834 0.87714 6.61349
    CHANNELS 3 Zrotation Xrotation Yrotation
    JOINT Spine1
    {
      OFFSET 7.38963 1.71661e-005 0
      CHANNELS 3 Zrotation Xrotation Yrotation
      JOINT Spine2
      {
        OFFSET 11.9445 1.14441e-005 0
        CHANNELS 3 Zrotation Xrotation Yrotation
        JOINT Spine3
        {
          OFFSET 14.7254 4.19617e-005 0
          CHANNELS 3 Zrotation Xrotation Yrotation
          JOINT Spine4
          {
            OFFSET 10.9679 0 0
            CHANNELS 3 Zrotation Xrotation Yrotation
            JOINT RightShoulder
            {
              OFFSET 2.46616 -1.6653 3.69651
              CHANNELS 3 Zrotation Xrotation Yrotation
              JOINT RightArm
              {
                OFFSET 13.0012 0 0
                CHANNELS 3 Zrotation Xrotation Yrotation
                JOINT RightForeArm
                {
                  OFFSET 28.7848 1.52588e-005 0
                  CHANNELS 3 Zrotation Xrotation Yrotation
                  JOINT RightHand
                  {
                    OFFSET 26.5688 1.52588e-005 0
                    CHANNELS 3 Zrotation Xrotation Yrotation
                    End Site
                    {
                      OFFSET 0 0 0
                    }
                  }
                }
              }
            }
            JOINT LeftShoulder
            {
              OFFSET 2.38034 -1.29275 -3.7523
              CHANNELS 3 Zrotation Xrotation Yrotation
              JOINT LeftArm
              {
                OFFSET 16.3182 6.10352e-005 0
                CHANNELS 3 Zrotation Xrotation Yrotation
                JOINT LeftForeArm
                {
                  OFFSET 27.0901 0 0
                  CHANNELS 3 Zrotation Xrotation Yrotation
                  JOINT LeftHand
                  {
                    OFFSET 24.5451 1.52588e-005 0
                    CHANNELS 3 Zrotation Xrotation Yrotation
                    End Site
                    {
                      OFFSET 0 0 0
                    }
                  }
                }
              }
            }
            JOINT Neck
            {
              OFFSET 5.0226 -0.0266342 0
              CHANNELS 3 Zrotation Xrotation Yrotation
              JOINT Head
              {
                OFFSET 6.69364 2.86102e-005 0
                CHANNELS 3 Zrotation Xrotation Yrotation
                End Site
                {
                  OFFSET 0 0 0
                }
              }
            }
          }
        }
      }
    }
  }
}
MOTION
Frames:	6
Frame Time:	0.0416667
-7443.48 370.229 -7474.35 -101.408 0.376305 -80.1824 -130.727 48.7687 99.9432 179.087 59.8436 -179.185 128.666 -61.6696 168.765 -121.596 38.2146 -103.578 -112.359 -76.7164 149.962 -3.0199 19.6707 12.2608 -27.6359 -9.17895 41.1237 130.979 44.1359 33.4074 12.2939 5.8151 -95.2576 16.8577 21.5909 -14.3075 5.28154 20.9472 -15.2571 -18.5756 24.8362 -6.87102 1.43706 24.8362 -6.87101 116.121 -2.42008 -33.6239 71.2802 -42.7584 17.0063 55.8248 -20.8313 -30.9483 -22.8938 -19.7558 78.1014 -44.5008 67.7015 34.2718 -29.7832 -38.077 160.505 -74.3125 73.2692 -0.287968 -0.871357 2.97387 -53.3079 32.7089 -61.6453 76.9987 -54.9682 -68.1371 -58.9165 
-7452.72 369.216 -7482.15 -101.784 0.457472 -80.3674 -130.404 48.8378 101.48 178.963 58.5124 -179.079 126.007 -58.2418 167.084 -111.41 45.743 -109.536 -115.251 -77.6244 145.983 -2.76936 17.353 12.389 -27.6453 -8.95275 42.6172 130.672 45.1562 34.5717 12.3496 6.00845 -95.3053 16.4649 21.7142 -14.2985 4.891 21.0707 -15.2542 -18.9871 24.9502 -6.81872 1.02554 24.9502 -6.81873 116.432 -2.59056 -32.8759 69.4624 -43.4864 15.1228 55.7247 -21.3593 -30.9777 -22.61 -19.7438 78.9044 -46.8956 67.109 37.1688 -27.0478 -25.8085 163.366 115.833 80.6134 -179.529 -0.745879 1.51841 -53.7789 34.6763 -61.0217 78.6103 -56.9329 -67.9967 -60.4687 
-7478.75 366.402 -7504.13 -102.847 0.693817 -80.842 -129.624 49.0755 105.845 179.128 55.7063 -179.23 120.162 -48.5248 163.458 -94.9215 56.7246 -122.915 -127.649 -79.7452 130.445 -2.08446 10.6547 12.7031 -27.5849 -8.26396 47.0917 128.901 48.1286 38.6474 12.4925 6.54908 -95.4364 15.3618 22.0328 -14.259 3.79409 21.3906 -15.2306 -20.1397 25.2401 -6.66724 -0.127042 25.2401 -6.66727 117.38 -3.24374 -30.8411 63.9697 -45.2579 9.45359 55.4298 -22.7764 -31.0436 -21.8861 -19.6747 80.9254 -52.8183 65.2358 44.4729 -23.1376 7.56661 168.989 149.396 53.6824 -179.927 -0.393283 -1.21308 -55.1193 39.7559 -59.1243 82.6634 -62.1498 -67.5199 -64.5512 
-7518.91 362.143 -7538.04 -104.527 1.10633 -81.437 -128.853 49.7415 112.962 179.438 43.8658 -179.496 124.338 -36.037 171.746 -91.8588 64.4365 -129.886 -158.588 -80.5226 94.4432 -1.12722 0.181738 13.0224 -27.4293 -7.13955 54.6121 122.731 52.6628 47.9529 12.6829 7.37351 -95.633 13.6671 22.463 -14.1651 2.10839 21.8244 -15.1584 -21.904 25.6193 -6.42243 -1.8913 25.6193 -6.42244 119.063 -4.727 -27.8814 54.5095 -47.0524 -0.233324 54.945 -24.7734 -31.116 -20.9565 -19.5001 83.4467 -59.9194 61.9663 53.7383 -23.837 44.6621 177.092 -173.31 33.8737 179.988 0.336823 -1.43169 -57.0955 46.4249 -55.8904 87.6821 -69.3257 -66.6268 -70.0506 
-7570.54 356.77 -7581.59 -106.816 1.75465 -81.8909 -128.731 51.0209 122.624 -0.219776 -19.8221 -0.238895 65.3243 0.837565 8.79036 -109.339 69.4299 -120.805 171.969 -75.8567 58.1508 -0.0133932 -12.9249 13.0646 -27.7289 -5.93157 65.1158 107.614 56.697 66.2109 12.8953 8.4013 -95.881 11.5392 22.9409 -14.0189 -0.00880157 22.308 -15.0368 -24.1121 26.0278 -6.10878 -4.09945 26.0278 -6.10877 121.597 -7.35732 -24.4173 41.4596 -47.3669 -13.4182 54.2911 -27.0476 -31.1125 -20.0518 -19.2088 85.794 -66.3055 57.4364 63.0242 -35.5467 67.211 -165.706 -150.839 11.4318 179.957 1.61358 -2.17813 -59.6427 53.2846 -51.4625 92.3123 -77.1208 -65.3373 -75.8151 
-7631.07 350.589 -7632.58 -109.826 2.71855 -81.7717 -130.202 53.0387 134.898 -0.254518 -26.5298 -0.234891 75.188 -15.013 4.17946 -140.259 68.8551 -99.8328 164.047 -66.406 41.8858 0.991243 -26.8151 12.6518 -30.0279 -7.05956 78.1579 83.876 55.6738 92.4599 13.226 9.48271 -96.222 9.32395 23.6098 -14.0296 -2.21105 22.9755 -15.081 -26.4376 26.6646 -5.87476 -6.42495 26.6646 -5.87476 124.942 -10.7352 -20.377 27.2634 -44.9468 -27.5577 53.4531 -29.2496 -31.0019 -19.3585 -18.8589 87.4728 -71.2625 52.2781 71.965 -57.5376 75.6159 -139.678 -142.153 -11.4031 179.946 3.48854 -3.35617 -62.5633 59.9094 -46.6014 97.1145 -85.3038 -63.8346 -81.8962 
